<svg width="76" height="76" viewBox="0 0 76 76" fill="none" xmlns="http://www.w3.org/2000/svg">
<circle cx="38" cy="38" r="38" fill="#031525"/>
<path d="M31.8 17.25V53C32.8667 53.2333 33.9 53.6 34.9 54.1C35.9333 54.6 36.9833 55.1 38.05 55.6C39.1167 56.1 40.2333 56.5333 41.4 56.9C42.6 57.2667 43.9 57.45 45.3 57.45C46.4667 57.45 47.75 57.1167 49.15 56.45C49.25 56.9167 49.3 57.3667 49.3 57.8C49.3 58.5 49.1667 59.15 48.9 59.75C48.6667 60.3833 48.3 60.9333 47.8 61.4C47.3333 61.8667 46.75 62.2333 46.05 62.5C45.3833 62.8 44.6333 62.95 43.8 62.95C42.5 62.95 41.2167 62.5333 39.95 61.7C38.6833 60.9 37.4 60 36.1 59C34.8 58.0333 33.4333 57.1333 32 56.3C30.6 55.5 29.1 55.1 27.5 55.1C27.3 55.1 27.1 55.1 26.9 55.1C26.7333 55.1 26.55 55.1167 26.35 55.15V19.95C24.1167 20.5833 22.35 21.6667 21.05 23.2C19.75 24.7333 19.1 26.65 19.1 28.95C19.1 29.85 19.1667 30.6167 19.3 31.25C19.4333 31.85 19.6 32.3833 19.8 32.85C20 33.2833 20.2333 33.6667 20.5 34C20.8 34.3 21.1 34.5833 21.4 34.85C19.4 34.85 17.8167 34.4 16.65 33.5C15.4833 32.5667 14.9 31 14.9 28.8C14.9 27.2 15.3167 25.7 16.15 24.3C16.9833 22.8667 18.0833 21.6167 19.45 20.55C20.85 19.45 22.4333 18.5833 24.2 17.95C26 17.3167 27.85 17 29.75 17C30.1167 17 30.4667 17.0167 30.8 17.05C31.1667 17.05 31.5167 17.0667 31.85 17.1L31.8 17.25Z" fill="#1596F2"/>
<path d="M57.4063 29V46C57.4063 46.4 57.4229 46.8667 57.4563 47.4C57.4896 47.9 57.5729 48.3833 57.7063 48.85C57.8729 49.3167 58.1063 49.7167 58.4063 50.05C58.7396 50.35 59.2063 50.5 59.8063 50.5C60.0729 50.5 60.3563 50.4667 60.6563 50.4C60.9896 50.3333 61.2563 50.2667 61.4563 50.2C61.4896 50.3667 61.5063 50.5167 61.5063 50.65C61.5396 50.7833 61.5563 50.9333 61.5563 51.1C61.5563 52.1 61.1729 52.8833 60.4063 53.45C59.6396 54.0167 58.7729 54.3 57.8063 54.3C56.7729 54.3 55.8396 53.95 55.0063 53.25C54.1729 52.5167 53.6063 51.3 53.3063 49.6C52.8063 50.9 51.9896 52.0167 50.8563 52.95C49.7229 53.85 48.3563 54.3 46.7563 54.3C45.7563 54.3 44.7396 54.1 43.7063 53.7C42.7063 53.2667 41.8063 52.6 41.0063 51.7C40.2063 50.8 39.5396 49.6333 39.0063 48.2C38.5063 46.7667 38.2563 45.0333 38.2563 43C38.2563 41.4333 38.4229 39.8167 38.7563 38.15C39.1229 36.45 39.6729 34.9167 40.4063 33.55C41.1729 32.15 42.1563 31 43.3563 30.1C44.5563 29.2 45.9896 28.75 47.6563 28.75C48.5229 28.75 49.4063 28.9333 50.3063 29.3C51.2396 29.6667 51.9396 30.3667 52.4063 31.4V29H57.4063ZM47.8063 50.5C48.4396 50.5 49.0396 50.35 49.6063 50.05C50.1729 49.75 50.6563 49.35 51.0563 48.85C51.4896 48.35 51.8229 47.7833 52.0563 47.15C52.2896 46.4833 52.4063 45.7833 52.4063 45.05V33.65C52.1729 33.0833 51.8229 32.5833 51.3562 32.15C50.8896 31.7167 50.2229 31.5 49.3563 31.5C48.2896 31.5 47.3896 31.8667 46.6563 32.6C45.9229 33.3 45.3229 34.2 44.8563 35.3C44.3896 36.4 44.0396 37.6333 43.8063 39C43.6063 40.3333 43.5063 41.6167 43.5063 42.85C43.5063 45.55 43.9229 47.5 44.7563 48.7C45.5896 49.9 46.6063 50.5 47.8063 50.5Z" fill="white"/>
<path d="M47.0099 20.808L54.3574 17.7041C55.2478 17.328 56.1007 18.3084 55.605 19.1382L52.4966 24.3412C52.229 24.7891 51.6619 24.956 51.1944 24.7244L46.9553 22.6254C46.1886 22.2457 46.2218 21.141 47.0099 20.808Z" fill="#D9D9D9"/>
</svg>
