<svg width="176" height="176" viewBox="0 0 176 176" fill="none" xmlns="http://www.w3.org/2000/svg">
<circle cx="88" cy="88" r="88" fill="#031525"/>
<path d="M29.8 67.25V103C30.8667 103.233 31.9 103.6 32.9 104.1C33.9333 104.6 34.9833 105.1 36.05 105.6C37.1167 106.1 38.2333 106.533 39.4 106.9C40.6 107.267 41.9 107.45 43.3 107.45C44.4667 107.45 45.75 107.117 47.15 106.45C47.25 106.917 47.3 107.367 47.3 107.8C47.3 108.5 47.1667 109.15 46.9 109.75C46.6667 110.383 46.3 110.933 45.8 111.4C45.3333 111.867 44.75 112.233 44.05 112.5C43.3833 112.8 42.6333 112.95 41.8 112.95C40.5 112.95 39.2167 112.533 37.95 111.7C36.6833 110.9 35.4 110 34.1 109C32.8 108.033 31.4333 107.133 30 106.3C28.6 105.5 27.1 105.1 25.5 105.1C25.3 105.1 25.1 105.1 24.9 105.1C24.7333 105.1 24.55 105.117 24.35 105.15V69.95C22.1167 70.5833 20.35 71.6667 19.05 73.2C17.75 74.7333 17.1 76.65 17.1 78.95C17.1 79.85 17.1667 80.6167 17.3 81.25C17.4333 81.85 17.6 82.3833 17.8 82.85C18 83.2833 18.2333 83.6667 18.5 84C18.8 84.3 19.1 84.5833 19.4 84.85C17.4 84.85 15.8167 84.4 14.65 83.5C13.4833 82.5667 12.9 81 12.9 78.8C12.9 77.2 13.3167 75.7 14.15 74.3C14.9833 72.8667 16.0833 71.6167 17.45 70.55C18.85 69.45 20.4333 68.5833 22.2 67.95C24 67.3167 25.85 67 27.75 67C28.1167 67 28.4667 67.0167 28.8 67.05C29.1667 67.05 29.5167 67.0667 29.85 67.1L29.8 67.25ZM42.0062 79V96C42.0062 96.3333 42.0229 96.75 42.0563 97.25C42.0896 97.75 42.1729 98.25 42.3063 98.75C42.4729 99.2167 42.7063 99.6333 43.0063 100C43.3063 100.333 43.7229 100.5 44.2563 100.5C45.8896 100.5 47.0896 98.6833 47.8562 95.05H49.7063C49.3396 97.15 48.8729 98.8167 48.3063 100.05C47.7396 101.25 47.1396 102.167 46.5063 102.8C45.8729 103.433 45.2229 103.833 44.5563 104C43.8896 104.2 43.2896 104.3 42.7563 104.3C41.5896 104.3 40.6396 104.083 39.9063 103.65C39.1729 103.183 38.5896 102.6 38.1563 101.9C37.7229 101.2 37.4229 100.417 37.2563 99.55C37.0896 98.6833 37.0063 97.85 37.0063 97.05V79H42.0062ZM36.1063 71.8C36.1063 70.9 36.4229 70.1167 37.0563 69.45C37.6896 68.7833 38.4729 68.45 39.4063 68.45C40.3063 68.45 41.0896 68.7833 41.7563 69.45C42.4229 70.1167 42.7563 70.9 42.7563 71.8C42.7563 72.7333 42.4229 73.5167 41.7563 74.15C41.0896 74.7833 40.3063 75.1 39.4063 75.1C38.4729 75.1 37.6896 74.7833 37.0563 74.15C36.4229 73.5167 36.1063 72.7333 36.1063 71.8ZM52.7961 79V82.8C53.2961 81.9 53.7961 81.1833 54.2961 80.65C54.8294 80.0833 55.3628 79.6667 55.8961 79.4C56.4294 79.1333 56.9294 78.9667 57.3961 78.9C57.8961 78.8 58.3628 78.75 58.7961 78.75C60.2961 78.75 61.4961 79.0333 62.3961 79.6C63.3294 80.1667 64.0294 80.9 64.4961 81.8C64.9628 82.6667 65.2628 83.6333 65.3961 84.7C65.5628 85.7333 65.6461 86.7333 65.6461 87.7C65.6461 88.3 65.6294 88.9667 65.5961 89.7C65.5628 90.4 65.5294 91.1333 65.4961 91.9C65.4628 92.6333 65.4294 93.3833 65.3961 94.15C65.3628 94.8833 65.3461 95.5667 65.3461 96.2C65.3461 96.4667 65.3628 96.85 65.3961 97.35C65.4294 97.8167 65.5128 98.2833 65.6461 98.75C65.7794 99.2167 65.9961 99.6333 66.2961 100C66.5961 100.333 67.0294 100.5 67.5961 100.5C68.3628 100.5 69.0461 100.067 69.6461 99.2C70.2794 98.3333 70.7961 96.95 71.1961 95.05H73.0461C72.6794 97.15 72.2128 98.8167 71.6461 100.05C71.0794 101.25 70.4794 102.167 69.8461 102.8C69.2128 103.433 68.5794 103.833 67.9461 104C67.3128 104.2 66.7294 104.3 66.1961 104.3C65.1294 104.3 64.2294 104.1 63.4961 103.7C62.7628 103.267 62.1628 102.7 61.6961 102C61.2294 101.3 60.8794 100.483 60.6461 99.55C60.4461 98.6167 60.3461 97.65 60.3461 96.65C60.3461 96.35 60.3461 95.8 60.3461 95C60.3794 94.1667 60.3961 93.2833 60.3961 92.35C60.4294 91.4167 60.4461 90.5333 60.4461 89.7C60.4794 88.8667 60.4961 88.2833 60.4961 87.95C60.4961 86.8833 60.4128 86 60.2461 85.3C60.0794 84.6 59.8461 84.05 59.5461 83.65C59.2461 83.25 58.8961 82.9667 58.4961 82.8C58.1294 82.6333 57.7294 82.55 57.2961 82.55C56.2628 82.55 55.3628 82.9667 54.5961 83.8C53.8628 84.6333 53.2628 86.0333 52.7961 88V104H47.7961V79H52.7961ZM76.1359 69V87.15L84.7359 79H89.5859L81.2359 85.75H81.7359C83.2359 85.75 84.4193 86 85.2859 86.5C86.1859 87 86.8693 87.65 87.3359 88.45C87.8359 89.2167 88.1526 90.0667 88.2859 91C88.4526 91.9 88.5359 92.75 88.5359 93.55C88.5359 94.25 88.5026 95.05 88.4359 95.95C88.4026 96.8167 88.3859 97.4833 88.3859 97.95C88.3859 98.25 88.4026 98.55 88.4359 98.85C88.5026 99.15 88.6026 99.4333 88.7359 99.7C88.9026 99.9333 89.1359 100.133 89.4359 100.3C89.7693 100.433 90.2026 100.5 90.7359 100.5C91.0026 100.5 91.3526 100.483 91.7859 100.45C92.2193 100.383 92.5693 100.267 92.8359 100.1C92.8359 100.233 92.8359 100.367 92.8359 100.5C92.8693 100.6 92.8859 100.7 92.8859 100.8C92.8859 101.533 92.7526 102.133 92.4859 102.6C92.2193 103.067 91.8859 103.433 91.4859 103.7C91.0859 103.933 90.6526 104.083 90.1859 104.15C89.7193 104.25 89.2859 104.3 88.8859 104.3C87.9193 104.3 87.0859 104.15 86.3859 103.85C85.6859 103.55 85.1026 103.15 84.6359 102.65C84.2026 102.117 83.8693 101.517 83.6359 100.85C83.4359 100.15 83.3359 99.4 83.3359 98.6C83.3359 98.4667 83.3359 98.1833 83.3359 97.75C83.3359 97.2833 83.3359 96.8 83.3359 96.3C83.3693 95.8 83.3859 95.3333 83.3859 94.9C83.3859 94.4333 83.3859 94.1167 83.3859 93.95C83.3859 92.2167 83.0693 91.05 82.4359 90.45C81.8026 89.85 81.0693 89.55 80.2359 89.55C79.3693 89.55 78.5859 89.8333 77.8859 90.4C77.2193 90.9667 76.6359 91.9667 76.1359 93.4V104H71.1359V69.7L76.1359 69Z" fill="#1596F2"/>
<path d="M113.75 79V96C113.75 96.3333 113.767 96.75 113.8 97.25C113.833 97.75 113.917 98.25 114.05 98.75C114.217 99.2167 114.45 99.6333 114.75 100C115.05 100.333 115.467 100.5 116 100.5C117.633 100.5 118.833 98.6833 119.6 95.05H121.45C121.083 97.15 120.617 98.8167 120.05 100.05C119.483 101.25 118.883 102.167 118.25 102.8C117.617 103.433 116.967 103.833 116.3 104C115.633 104.2 115.033 104.3 114.5 104.3C113.733 104.3 113.067 104.167 112.5 103.9C111.967 103.633 111.5 103.283 111.1 102.85C110.733 102.417 110.433 101.917 110.2 101.35C109.967 100.783 109.783 100.183 109.65 99.55C109.15 100.85 108.333 101.967 107.2 102.9C106.1 103.833 104.75 104.3 103.15 104.3C102.15 104.3 101.133 104.1 100.1 103.7C99.1 103.3 98.1833 102.65 97.35 101.75C96.55 100.817 95.8833 99.6333 95.35 98.2C94.85 96.7333 94.6 94.95 94.6 92.85C94.6 91.3167 94.7667 89.7167 95.1 88.05C95.4667 86.3833 96.0333 84.8667 96.8 83.5C97.5667 82.1333 98.55 81 99.75 80.1C100.95 79.2 102.4 78.75 104.1 78.75C104.5 78.75 104.917 78.8 105.35 78.9C105.817 78.9667 106.25 79.1 106.65 79.3C107.083 79.5 107.483 79.7833 107.85 80.15C108.217 80.4833 108.517 80.9 108.75 81.4V79H113.75ZM104.4 100.5C104.9 100.5 105.4 100.367 105.9 100.1C106.433 99.8 106.9 99.4167 107.3 98.95C107.733 98.45 108.083 97.8667 108.35 97.2C108.617 96.5333 108.75 95.8167 108.75 95.05V83.65C108.517 83.1167 108.15 82.6333 107.65 82.2C107.183 81.7333 106.567 81.5 105.8 81.5C104.733 81.5 103.817 81.8667 103.05 82.6C102.283 83.3 101.667 84.2 101.2 85.3C100.733 86.3667 100.383 87.55 100.15 88.85C99.95 90.1167 99.85 91.3333 99.85 92.5C99.85 95.3667 100.233 97.4167 101 98.65C101.8 99.8833 102.933 100.5 104.4 100.5ZM138.018 79V102.95C138.851 102.683 139.584 102.383 140.218 102.05C140.884 101.717 141.451 101.267 141.918 100.7C142.418 100.133 142.818 99.4 143.118 98.5C143.451 97.6 143.701 96.45 143.868 95.05H145.718C145.451 96.8167 145.101 98.2667 144.668 99.4C144.268 100.5 143.751 101.4 143.118 102.1C142.518 102.767 141.784 103.3 140.918 103.7C140.084 104.067 139.118 104.417 138.018 104.75V107.95C138.018 109.517 137.851 110.833 137.518 111.9C137.184 113 136.718 113.883 136.118 114.55C135.551 115.25 134.884 115.75 134.118 116.05C133.384 116.35 132.601 116.5 131.768 116.5C130.101 116.5 128.801 116.017 127.868 115.05C126.934 114.117 126.468 112.967 126.468 111.6C126.468 110.733 126.651 109.95 127.018 109.25C127.418 108.55 127.918 107.9 128.518 107.3C129.151 106.733 129.851 106.217 130.618 105.75C131.418 105.317 132.218 104.933 133.018 104.6V100.3C132.384 101.167 131.584 101.883 130.618 102.45C129.684 103.017 128.618 103.3 127.418 103.3C126.418 103.3 125.401 103.117 124.368 102.75C123.368 102.35 122.451 101.717 121.618 100.85C120.818 99.9833 120.151 98.85 119.618 97.45C119.118 96.05 118.868 94.35 118.868 92.35C118.868 90.85 119.034 89.3 119.368 87.7C119.734 86.1 120.301 84.65 121.068 83.35C121.834 82.0167 122.818 80.9167 124.018 80.05C125.218 79.1833 126.668 78.75 128.368 78.75C128.768 78.75 129.184 78.8 129.618 78.9C130.084 78.9667 130.518 79.1 130.918 79.3C131.351 79.5 131.751 79.7833 132.118 80.15C132.484 80.4833 132.784 80.9 133.018 81.4V79H138.018ZM128.668 99.5C129.168 99.5 129.668 99.3667 130.168 99.1C130.701 98.8333 131.168 98.4667 131.568 98C132.001 97.5333 132.351 96.9833 132.618 96.35C132.884 95.7167 133.018 95.0333 133.018 94.3V83.65C132.784 83.1167 132.418 82.6333 131.918 82.2C131.451 81.7333 130.834 81.5 130.068 81.5C129.001 81.5 128.084 81.85 127.318 82.55C126.551 83.2167 125.934 84.0667 125.468 85.1C125.001 86.1333 124.651 87.2667 124.418 88.5C124.218 89.7333 124.118 90.9 124.118 92C124.118 94.7 124.501 96.6333 125.268 97.8C126.068 98.9333 127.201 99.5 128.668 99.5ZM130.818 113.9C131.718 113.9 132.301 113.55 132.568 112.85C132.868 112.183 133.018 111.267 133.018 110.1V106.6C131.351 107.367 130.168 108.117 129.468 108.85C128.768 109.617 128.418 110.467 128.418 111.4C128.418 112.167 128.618 112.767 129.018 113.2C129.451 113.667 130.051 113.9 130.818 113.9ZM148.885 79V96C148.885 96.3333 148.902 96.75 148.935 97.25C148.968 97.75 149.052 98.25 149.185 98.75C149.352 99.2167 149.585 99.6333 149.885 100C150.185 100.333 150.602 100.5 151.135 100.5C152.768 100.5 153.968 98.6833 154.735 95.05H156.585C156.218 97.15 155.752 98.8167 155.185 100.05C154.618 101.25 154.018 102.167 153.385 102.8C152.752 103.433 152.102 103.833 151.435 104C150.768 104.2 150.168 104.3 149.635 104.3C148.468 104.3 147.518 104.083 146.785 103.65C146.052 103.183 145.468 102.6 145.035 101.9C144.602 101.2 144.302 100.417 144.135 99.55C143.968 98.6833 143.885 97.85 143.885 97.05V79H148.885ZM142.985 71.8C142.985 70.9 143.302 70.1167 143.935 69.45C144.568 68.7833 145.352 68.45 146.285 68.45C147.185 68.45 147.968 68.7833 148.635 69.45C149.302 70.1167 149.635 70.9 149.635 71.8C149.635 72.7333 149.302 73.5167 148.635 74.15C147.968 74.7833 147.185 75.1 146.285 75.1C145.352 75.1 144.568 74.7833 143.935 74.15C143.302 73.5167 142.985 72.7333 142.985 71.8ZM159.725 69V96C159.725 96.4 159.725 96.8667 159.725 97.4C159.758 97.9 159.842 98.3833 159.975 98.85C160.142 99.3167 160.358 99.7167 160.625 100.05C160.925 100.35 161.358 100.5 161.925 100.5C162.192 100.5 162.508 100.467 162.875 100.4C163.275 100.333 163.575 100.267 163.775 100.2C163.808 100.367 163.825 100.517 163.825 100.65C163.858 100.783 163.875 100.933 163.875 101.1C163.875 101.667 163.742 102.167 163.475 102.6C163.242 103 162.925 103.333 162.525 103.6C162.125 103.833 161.675 104 161.175 104.1C160.675 104.233 160.175 104.3 159.675 104.3C158.675 104.3 157.858 104.1 157.225 103.7C156.592 103.267 156.075 102.717 155.675 102.05C155.308 101.35 155.058 100.583 154.925 99.75C154.792 98.9167 154.725 98.0833 154.725 97.25V69.7L159.725 69Z" fill="white"/>
<path d="M105.01 70.808L112.357 67.7041C113.248 67.328 114.101 68.3084 113.605 69.1382L110.497 74.3412C110.229 74.7891 109.662 74.956 109.194 74.7244L104.955 72.6254C104.189 72.2457 104.222 71.141 105.01 70.808Z" fill="#D9D9D9"/>
</svg>
