<svg width="152" height="63" viewBox="0 0 152 63" fill="none" xmlns="http://www.w3.org/2000/svg">
<path d="M17.8 13.25V49C18.8667 49.2333 19.9 49.6 20.9 50.1C21.9333 50.6 22.9833 51.1 24.05 51.6C25.1167 52.1 26.2333 52.5333 27.4 52.9C28.6 53.2667 29.9 53.45 31.3 53.45C32.4667 53.45 33.75 53.1167 35.15 52.45C35.25 52.9167 35.3 53.3667 35.3 53.8C35.3 54.5 35.1667 55.15 34.9 55.75C34.6667 56.3833 34.3 56.9333 33.8 57.4C33.3333 57.8667 32.75 58.2333 32.05 58.5C31.3833 58.8 30.6333 58.95 29.8 58.95C28.5 58.95 27.2167 58.5333 25.95 57.7C24.6833 56.9 23.4 56 22.1 55C20.8 54.0333 19.4333 53.1333 18 52.3C16.6 51.5 15.1 51.1 13.5 51.1C13.3 51.1 13.1 51.1 12.9 51.1C12.7333 51.1 12.55 51.1167 12.35 51.15V15.95C10.1167 16.5833 8.35 17.6667 7.05 19.2C5.75 20.7333 5.1 22.65 5.1 24.95C5.1 25.85 5.16667 26.6167 5.3 27.25C5.43333 27.85 5.6 28.3833 5.8 28.85C6 29.2833 6.23333 29.6667 6.5 30C6.8 30.3 7.1 30.5833 7.4 30.85C5.4 30.85 3.81667 30.4 2.65 29.5C1.48333 28.5667 0.9 27 0.9 24.8C0.9 23.2 1.31667 21.7 2.15 20.3C2.98333 18.8667 4.08333 17.6167 5.45 16.55C6.85 15.45 8.43333 14.5833 10.2 13.95C12 13.3167 13.85 13 15.75 13C16.1167 13 16.4667 13.0167 16.8 13.05C17.1667 13.05 17.5167 13.0667 17.85 13.1L17.8 13.25ZM30.0062 25V42C30.0062 42.3333 30.0229 42.75 30.0563 43.25C30.0896 43.75 30.1729 44.25 30.3063 44.75C30.4729 45.2167 30.7063 45.6333 31.0063 46C31.3063 46.3333 31.7229 46.5 32.2563 46.5C33.8896 46.5 35.0896 44.6833 35.8562 41.05H37.7063C37.3396 43.15 36.8729 44.8167 36.3063 46.05C35.7396 47.25 35.1396 48.1667 34.5063 48.8C33.8729 49.4333 33.2229 49.8333 32.5563 50C31.8896 50.2 31.2896 50.3 30.7563 50.3C29.5896 50.3 28.6396 50.0833 27.9063 49.65C27.1729 49.1833 26.5896 48.6 26.1563 47.9C25.7229 47.2 25.4229 46.4167 25.2563 45.55C25.0896 44.6833 25.0063 43.85 25.0063 43.05V25H30.0062ZM24.1063 17.8C24.1063 16.9 24.4229 16.1167 25.0563 15.45C25.6896 14.7833 26.4729 14.45 27.4063 14.45C28.3063 14.45 29.0896 14.7833 29.7563 15.45C30.4229 16.1167 30.7563 16.9 30.7563 17.8C30.7563 18.7333 30.4229 19.5167 29.7563 20.15C29.0896 20.7833 28.3063 21.1 27.4063 21.1C26.4729 21.1 25.6896 20.7833 25.0563 20.15C24.4229 19.5167 24.1063 18.7333 24.1063 17.8ZM40.7961 25V28.8C41.2961 27.9 41.7961 27.1833 42.2961 26.65C42.8294 26.0833 43.3628 25.6667 43.8961 25.4C44.4294 25.1333 44.9294 24.9667 45.3961 24.9C45.8961 24.8 46.3628 24.75 46.7961 24.75C48.2961 24.75 49.4961 25.0333 50.3961 25.6C51.3294 26.1667 52.0294 26.9 52.4961 27.8C52.9628 28.6667 53.2628 29.6333 53.3961 30.7C53.5628 31.7333 53.6461 32.7333 53.6461 33.7C53.6461 34.3 53.6294 34.9667 53.5961 35.7C53.5628 36.4 53.5294 37.1333 53.4961 37.9C53.4628 38.6333 53.4294 39.3833 53.3961 40.15C53.3628 40.8833 53.3461 41.5667 53.3461 42.2C53.3461 42.4667 53.3628 42.85 53.3961 43.35C53.4294 43.8167 53.5128 44.2833 53.6461 44.75C53.7794 45.2167 53.9961 45.6333 54.2961 46C54.5961 46.3333 55.0294 46.5 55.5961 46.5C56.3628 46.5 57.0461 46.0667 57.6461 45.2C58.2794 44.3333 58.7961 42.95 59.1961 41.05H61.0461C60.6794 43.15 60.2128 44.8167 59.6461 46.05C59.0794 47.25 58.4794 48.1667 57.8461 48.8C57.2128 49.4333 56.5794 49.8333 55.9461 50C55.3128 50.2 54.7294 50.3 54.1961 50.3C53.1294 50.3 52.2294 50.1 51.4961 49.7C50.7628 49.2667 50.1628 48.7 49.6961 48C49.2294 47.3 48.8794 46.4833 48.6461 45.55C48.4461 44.6167 48.3461 43.65 48.3461 42.65C48.3461 42.35 48.3461 41.8 48.3461 41C48.3794 40.1667 48.3961 39.2833 48.3961 38.35C48.4294 37.4167 48.4461 36.5333 48.4461 35.7C48.4794 34.8667 48.4961 34.2833 48.4961 33.95C48.4961 32.8833 48.4128 32 48.2461 31.3C48.0794 30.6 47.8461 30.05 47.5461 29.65C47.2461 29.25 46.8961 28.9667 46.4961 28.8C46.1294 28.6333 45.7294 28.55 45.2961 28.55C44.2628 28.55 43.3628 28.9667 42.5961 29.8C41.8628 30.6333 41.2628 32.0333 40.7961 34V50H35.7961V25H40.7961ZM64.1359 15V33.15L72.7359 25H77.5859L69.2359 31.75H69.7359C71.2359 31.75 72.4193 32 73.2859 32.5C74.1859 33 74.8693 33.65 75.3359 34.45C75.8359 35.2167 76.1526 36.0667 76.2859 37C76.4526 37.9 76.5359 38.75 76.5359 39.55C76.5359 40.25 76.5026 41.05 76.4359 41.95C76.4026 42.8167 76.3859 43.4833 76.3859 43.95C76.3859 44.25 76.4026 44.55 76.4359 44.85C76.5026 45.15 76.6026 45.4333 76.7359 45.7C76.9026 45.9333 77.1359 46.1333 77.4359 46.3C77.7693 46.4333 78.2026 46.5 78.7359 46.5C79.0026 46.5 79.3526 46.4833 79.7859 46.45C80.2193 46.3833 80.5693 46.2667 80.8359 46.1C80.8359 46.2333 80.8359 46.3667 80.8359 46.5C80.8693 46.6 80.8859 46.7 80.8859 46.8C80.8859 47.5333 80.7526 48.1333 80.4859 48.6C80.2193 49.0667 79.8859 49.4333 79.4859 49.7C79.0859 49.9333 78.6526 50.0833 78.1859 50.15C77.7193 50.25 77.2859 50.3 76.8859 50.3C75.9193 50.3 75.0859 50.15 74.3859 49.85C73.6859 49.55 73.1026 49.15 72.6359 48.65C72.2026 48.1167 71.8693 47.5167 71.6359 46.85C71.4359 46.15 71.3359 45.4 71.3359 44.6C71.3359 44.4667 71.3359 44.1833 71.3359 43.75C71.3359 43.2833 71.3359 42.8 71.3359 42.3C71.3693 41.8 71.3859 41.3333 71.3859 40.9C71.3859 40.4333 71.3859 40.1167 71.3859 39.95C71.3859 38.2167 71.0693 37.05 70.4359 36.45C69.8026 35.85 69.0693 35.55 68.2359 35.55C67.3693 35.55 66.5859 35.8333 65.8859 36.4C65.2193 36.9667 64.6359 37.9667 64.1359 39.4V50H59.1359V15.7L64.1359 15Z" fill="#1596F2"/>
<path d="M101.75 25V42C101.75 42.3333 101.767 42.75 101.8 43.25C101.833 43.75 101.917 44.25 102.05 44.75C102.217 45.2167 102.45 45.6333 102.75 46C103.05 46.3333 103.467 46.5 104 46.5C105.633 46.5 106.833 44.6833 107.6 41.05H109.45C109.083 43.15 108.617 44.8167 108.05 46.05C107.483 47.25 106.883 48.1667 106.25 48.8C105.617 49.4333 104.967 49.8333 104.3 50C103.633 50.2 103.033 50.3 102.5 50.3C101.733 50.3 101.067 50.1667 100.5 49.9C99.9667 49.6333 99.5 49.2833 99.1 48.85C98.7333 48.4167 98.4333 47.9167 98.2 47.35C97.9667 46.7833 97.7833 46.1833 97.65 45.55C97.15 46.85 96.3333 47.9667 95.2 48.9C94.1 49.8333 92.75 50.3 91.15 50.3C90.15 50.3 89.1333 50.1 88.1 49.7C87.1 49.3 86.1833 48.65 85.35 47.75C84.55 46.8167 83.8833 45.6333 83.35 44.2C82.85 42.7333 82.6 40.95 82.6 38.85C82.6 37.3167 82.7667 35.7167 83.1 34.05C83.4667 32.3833 84.0333 30.8667 84.8 29.5C85.5667 28.1333 86.55 27 87.75 26.1C88.95 25.2 90.4 24.75 92.1 24.75C92.5 24.75 92.9167 24.8 93.35 24.9C93.8167 24.9667 94.25 25.1 94.65 25.3C95.0833 25.5 95.4833 25.7833 95.85 26.15C96.2167 26.4833 96.5167 26.9 96.75 27.4V25H101.75ZM92.4 46.5C92.9 46.5 93.4 46.3667 93.9 46.1C94.4333 45.8 94.9 45.4167 95.3 44.95C95.7333 44.45 96.0833 43.8667 96.35 43.2C96.6167 42.5333 96.75 41.8167 96.75 41.05V29.65C96.5167 29.1167 96.15 28.6333 95.65 28.2C95.1833 27.7333 94.5667 27.5 93.8 27.5C92.7333 27.5 91.8167 27.8667 91.05 28.6C90.2833 29.3 89.6667 30.2 89.2 31.3C88.7333 32.3667 88.3833 33.55 88.15 34.85C87.95 36.1167 87.85 37.3333 87.85 38.5C87.85 41.3667 88.2333 43.4167 89 44.65C89.8 45.8833 90.9333 46.5 92.4 46.5ZM126.018 25V48.95C126.851 48.6833 127.584 48.3833 128.218 48.05C128.884 47.7167 129.451 47.2667 129.918 46.7C130.418 46.1333 130.818 45.4 131.118 44.5C131.451 43.6 131.701 42.45 131.868 41.05H133.718C133.451 42.8167 133.101 44.2667 132.668 45.4C132.268 46.5 131.751 47.4 131.118 48.1C130.518 48.7667 129.784 49.3 128.918 49.7C128.084 50.0667 127.118 50.4167 126.018 50.75V53.95C126.018 55.5167 125.851 56.8333 125.518 57.9C125.184 59 124.718 59.8833 124.118 60.55C123.551 61.25 122.884 61.75 122.118 62.05C121.384 62.35 120.601 62.5 119.768 62.5C118.101 62.5 116.801 62.0167 115.868 61.05C114.934 60.1167 114.468 58.9667 114.468 57.6C114.468 56.7333 114.651 55.95 115.018 55.25C115.418 54.55 115.918 53.9 116.518 53.3C117.151 52.7333 117.851 52.2167 118.618 51.75C119.418 51.3167 120.218 50.9333 121.018 50.6V46.3C120.384 47.1667 119.584 47.8833 118.618 48.45C117.684 49.0167 116.618 49.3 115.418 49.3C114.418 49.3 113.401 49.1167 112.368 48.75C111.368 48.35 110.451 47.7167 109.618 46.85C108.818 45.9833 108.151 44.85 107.618 43.45C107.118 42.05 106.868 40.35 106.868 38.35C106.868 36.85 107.034 35.3 107.368 33.7C107.734 32.1 108.301 30.65 109.068 29.35C109.834 28.0167 110.818 26.9167 112.018 26.05C113.218 25.1833 114.668 24.75 116.368 24.75C116.768 24.75 117.184 24.8 117.618 24.9C118.084 24.9667 118.518 25.1 118.918 25.3C119.351 25.5 119.751 25.7833 120.118 26.15C120.484 26.4833 120.784 26.9 121.018 27.4V25H126.018ZM116.668 45.5C117.168 45.5 117.668 45.3667 118.168 45.1C118.701 44.8333 119.168 44.4667 119.568 44C120.001 43.5333 120.351 42.9833 120.618 42.35C120.884 41.7167 121.018 41.0333 121.018 40.3V29.65C120.784 29.1167 120.418 28.6333 119.918 28.2C119.451 27.7333 118.834 27.5 118.068 27.5C117.001 27.5 116.084 27.85 115.318 28.55C114.551 29.2167 113.934 30.0667 113.468 31.1C113.001 32.1333 112.651 33.2667 112.418 34.5C112.218 35.7333 112.118 36.9 112.118 38C112.118 40.7 112.501 42.6333 113.268 43.8C114.068 44.9333 115.201 45.5 116.668 45.5ZM118.818 59.9C119.718 59.9 120.301 59.55 120.568 58.85C120.868 58.1833 121.018 57.2667 121.018 56.1V52.6C119.351 53.3667 118.168 54.1167 117.468 54.85C116.768 55.6167 116.418 56.4667 116.418 57.4C116.418 58.1667 116.618 58.7667 117.018 59.2C117.451 59.6667 118.051 59.9 118.818 59.9ZM136.885 25V42C136.885 42.3333 136.902 42.75 136.935 43.25C136.968 43.75 137.052 44.25 137.185 44.75C137.352 45.2167 137.585 45.6333 137.885 46C138.185 46.3333 138.602 46.5 139.135 46.5C140.768 46.5 141.968 44.6833 142.735 41.05H144.585C144.218 43.15 143.752 44.8167 143.185 46.05C142.618 47.25 142.018 48.1667 141.385 48.8C140.752 49.4333 140.102 49.8333 139.435 50C138.768 50.2 138.168 50.3 137.635 50.3C136.468 50.3 135.518 50.0833 134.785 49.65C134.052 49.1833 133.468 48.6 133.035 47.9C132.602 47.2 132.302 46.4167 132.135 45.55C131.968 44.6833 131.885 43.85 131.885 43.05V25H136.885ZM130.985 17.8C130.985 16.9 131.302 16.1167 131.935 15.45C132.568 14.7833 133.352 14.45 134.285 14.45C135.185 14.45 135.968 14.7833 136.635 15.45C137.302 16.1167 137.635 16.9 137.635 17.8C137.635 18.7333 137.302 19.5167 136.635 20.15C135.968 20.7833 135.185 21.1 134.285 21.1C133.352 21.1 132.568 20.7833 131.935 20.15C131.302 19.5167 130.985 18.7333 130.985 17.8ZM147.725 15V42C147.725 42.4 147.725 42.8667 147.725 43.4C147.758 43.9 147.842 44.3833 147.975 44.85C148.142 45.3167 148.358 45.7167 148.625 46.05C148.925 46.35 149.358 46.5 149.925 46.5C150.192 46.5 150.508 46.4667 150.875 46.4C151.275 46.3333 151.575 46.2667 151.775 46.2C151.808 46.3667 151.825 46.5167 151.825 46.65C151.858 46.7833 151.875 46.9333 151.875 47.1C151.875 47.6667 151.742 48.1667 151.475 48.6C151.242 49 150.925 49.3333 150.525 49.6C150.125 49.8333 149.675 50 149.175 50.1C148.675 50.2333 148.175 50.3 147.675 50.3C146.675 50.3 145.858 50.1 145.225 49.7C144.592 49.2667 144.075 48.7167 143.675 48.05C143.308 47.35 143.058 46.5833 142.925 45.75C142.792 44.9167 142.725 44.0833 142.725 43.25V15.7L147.725 15Z" fill="white"/>
<path d="M93.0099 16.808L100.357 13.7041C101.248 13.328 102.101 14.3084 101.605 15.1382L98.4966 20.3411C98.229 20.7891 97.6619 20.956 97.1944 20.7244L92.9553 18.6253C92.1886 18.2457 92.2218 17.141 93.0099 16.808Z" fill="#D9D9D9"/>
</svg>
