<svg width="48" height="63" viewBox="0 0 48 63" fill="none" xmlns="http://www.w3.org/2000/svg">
<path d="M17.8 13.25V49C18.8667 49.2333 19.9 49.6 20.9 50.1C21.9333 50.6 22.9833 51.1 24.05 51.6C25.1167 52.1 26.2333 52.5333 27.4 52.9C28.6 53.2667 29.9 53.45 31.3 53.45C32.4667 53.45 33.75 53.1167 35.15 52.45C35.25 52.9167 35.3 53.3667 35.3 53.8C35.3 54.5 35.1667 55.15 34.9 55.75C34.6667 56.3833 34.3 56.9333 33.8 57.4C33.3333 57.8667 32.75 58.2333 32.05 58.5C31.3833 58.8 30.6333 58.95 29.8 58.95C28.5 58.95 27.2167 58.5333 25.95 57.7C24.6833 56.9 23.4 56 22.1 55C20.8 54.0333 19.4333 53.1333 18 52.3C16.6 51.5 15.1 51.1 13.5 51.1C13.3 51.1 13.1 51.1 12.9 51.1C12.7333 51.1 12.55 51.1167 12.35 51.15V15.95C10.1167 16.5833 8.35 17.6667 7.05 19.2C5.75 20.7333 5.1 22.65 5.1 24.95C5.1 25.85 5.16667 26.6167 5.3 27.25C5.43333 27.85 5.6 28.3833 5.8 28.85C6 29.2833 6.23333 29.6667 6.5 30C6.8 30.3 7.1 30.5833 7.4 30.85C5.4 30.85 3.81667 30.4 2.65 29.5C1.48333 28.5667 0.9 27 0.9 24.8C0.9 23.2 1.31667 21.7 2.15 20.3C2.98333 18.8667 4.08333 17.6167 5.45 16.55C6.85 15.45 8.43333 14.5833 10.2 13.95C12 13.3167 13.85 13 15.75 13C16.1167 13 16.4667 13.0167 16.8 13.05C17.1667 13.05 17.5167 13.0667 17.85 13.1L17.8 13.25Z" fill="#1596F2"/>
<path d="M43.4063 25V42C43.4063 42.4 43.4229 42.8667 43.4563 43.4C43.4896 43.9 43.5729 44.3833 43.7063 44.85C43.8729 45.3167 44.1063 45.7167 44.4063 46.05C44.7396 46.35 45.2063 46.5 45.8063 46.5C46.0729 46.5 46.3563 46.4667 46.6563 46.4C46.9896 46.3333 47.2563 46.2667 47.4563 46.2C47.4896 46.3667 47.5063 46.5167 47.5063 46.65C47.5396 46.7833 47.5563 46.9333 47.5563 47.1C47.5563 48.1 47.1729 48.8833 46.4063 49.45C45.6396 50.0167 44.7729 50.3 43.8063 50.3C42.7729 50.3 41.8396 49.95 41.0063 49.25C40.1729 48.5167 39.6063 47.3 39.3063 45.6C38.8063 46.9 37.9896 48.0167 36.8563 48.95C35.7229 49.85 34.3563 50.3 32.7563 50.3C31.7563 50.3 30.7396 50.1 29.7063 49.7C28.7063 49.2667 27.8063 48.6 27.0063 47.7C26.2063 46.8 25.5396 45.6333 25.0063 44.2C24.5063 42.7667 24.2563 41.0333 24.2563 39C24.2563 37.4333 24.4229 35.8167 24.7563 34.15C25.1229 32.45 25.6729 30.9167 26.4063 29.55C27.1729 28.15 28.1563 27 29.3563 26.1C30.5563 25.2 31.9896 24.75 33.6563 24.75C34.5229 24.75 35.4063 24.9333 36.3063 25.3C37.2396 25.6667 37.9396 26.3667 38.4063 27.4V25H43.4063ZM33.8063 46.5C34.4396 46.5 35.0396 46.35 35.6063 46.05C36.1729 45.75 36.6563 45.35 37.0563 44.85C37.4896 44.35 37.8229 43.7833 38.0563 43.15C38.2896 42.4833 38.4063 41.7833 38.4063 41.05V29.65C38.1729 29.0833 37.8229 28.5833 37.3562 28.15C36.8896 27.7167 36.2229 27.5 35.3563 27.5C34.2896 27.5 33.3896 27.8667 32.6563 28.6C31.9229 29.3 31.3229 30.2 30.8563 31.3C30.3896 32.4 30.0396 33.6333 29.8063 35C29.6063 36.3333 29.5063 37.6167 29.5063 38.85C29.5063 41.55 29.9229 43.5 30.7563 44.7C31.5896 45.9 32.6063 46.5 33.8063 46.5Z" fill="white"/>
<path d="M33.0099 16.808L40.3574 13.7041C41.2478 13.328 42.1007 14.3084 41.605 15.1382L38.4966 20.3412C38.229 20.7891 37.6619 20.956 37.1944 20.7244L32.9553 18.6254C32.1886 18.2457 32.2218 17.141 33.0099 16.808Z" fill="#D9D9D9"/>
</svg>
